#N canvas 509 174 687 431 10;
#X declare -lib mrpeach;
#X obj -584 27 import mrpeach;
#X obj -579 165 unpackOSC;
#X obj -590 340 print;
#X text -412 70 Example of how to route OSC packets into a usable format
with Mind Your OSCs;
#X obj -633 120 udpreceive 4200;
#X obj -633 200 routeOSC /AFF;
#X obj -591 245 routeOSC /Frustration;
#X obj -633 287 routeOSC /1;
#X connect 1 0 5 0;
#X connect 1 0 2 0;
#X connect 4 0 1 0;
#X connect 5 0 6 0;
#X connect 6 0 7 0;
